<svg width="35" height="36" viewBox="0 0 35 36" fill="none" xmlns="http://www.w3.org/2000/svg">
<g id="Frame">
<g id="Group">
<path id="Vector" d="M0 21.5679C0 23.0474 0.82494 24.3708 2.1552 25.0228C2.58163 25.2274 2.95063 25.5367 3.22854 25.9224C3.50646 26.3082 3.68445 26.7581 3.74629 27.2313C4.02298 29.3515 5.99995 30.8938 8.18221 30.4951C8.36139 30.4621 8.52516 30.4465 8.6978 30.4465C9.46582 30.4465 10.2161 30.7739 10.7578 31.3453C11.4796 32.1058 12.4534 32.5248 13.5 32.5248C14.5466 32.5248 15.5208 32.1058 16.2426 31.3448C16.5088 31.063 16.8284 30.8382 17.1823 30.6839C17.5362 30.5296 17.9173 30.4488 18.3027 30.4465C18.4753 30.4465 18.6391 30.4621 18.8183 30.4951C19.855 30.6853 20.8535 30.4461 21.6523 29.8714C22.0878 29.5701 22.4554 29.1792 22.7314 28.7245C23.0073 28.2697 23.1853 27.7612 23.2537 27.2322C23.3156 26.7585 23.4939 26.308 23.7724 25.9219C24.0508 25.5358 24.4204 25.2263 24.8476 25.0219C26.1755 24.3713 27 23.0479 27 21.5684C26.9991 20.9292 26.8401 20.3004 26.5376 19.7392C26.3155 19.3293 26.1984 18.8565 26.1984 18.372C26.1984 17.8875 26.3155 17.4147 26.5376 17.0043C26.8416 16.4471 27.0007 15.8209 27 15.1846C26.9979 14.4622 26.7946 13.755 26.4134 13.1439C26.0323 12.5329 25.4886 12.0428 24.8448 11.7297C24.4172 11.524 24.0475 11.2132 23.7695 10.8256C23.4916 10.438 23.3142 9.98613 23.2537 9.51129C23.1829 8.98393 23.0044 8.47723 22.7294 8.02343C22.4544 7.56963 22.0891 7.17867 21.6565 6.8754C20.84 6.3017 19.848 6.06864 18.8169 6.2583C18.3517 6.34487 17.8724 6.31238 17.4228 6.16381C16.9732 6.01524 16.5675 5.7553 16.2426 5.40766C15.526 4.65185 14.526 4.21875 13.5005 4.21875C12.4749 4.21875 11.475 4.65185 10.7578 5.40813C10.2166 5.979 9.46582 6.30689 8.69827 6.30689C8.52563 6.30689 8.36185 6.29133 8.18268 6.2583C6.01255 5.85917 4.02438 7.3972 3.74676 9.51271C3.68612 9.98737 3.50869 10.4391 3.23072 10.8265C2.95275 11.2139 2.58312 11.5246 2.15567 11.7301C1.51178 12.0432 0.968126 12.5333 0.586962 13.1444C0.205798 13.7554 0.00253939 14.4626 0.000466673 15.185C0.000466673 15.8239 0.155843 16.4362 0.463329 17.0052C0.685428 17.4152 0.802544 17.8879 0.802544 18.3725C0.802544 18.857 0.685428 19.3297 0.462862 19.7402C0.160272 20.3014 0.00131562 20.9302 0.000466673 21.5693L0 21.5679ZM1.28174 16.5514C1.05288 16.1326 0.93295 15.662 0.93319 15.1836C0.930339 14.6383 1.08166 14.1036 1.36934 13.6424C1.65702 13.1811 2.06906 12.8126 2.55694 12.5803C3.12478 12.3072 3.61584 11.8945 3.98518 11.38C4.35451 10.8654 4.59034 10.2654 4.67108 9.6349C4.72183 9.24759 4.85008 8.87478 5.04801 8.53923C5.24593 8.20368 5.50939 7.91241 5.82231 7.6832C6.13523 7.45399 6.49105 7.29163 6.86806 7.20604C7.24508 7.12045 7.63538 7.11342 8.01517 7.18537C9.29364 7.42126 10.5553 6.98344 11.4311 6.05968C11.9728 5.48881 12.7269 5.16092 13.5 5.16092C14.2731 5.16092 15.0272 5.48834 15.5684 6.05873C16.0001 6.51946 16.5387 6.86385 17.1354 7.0606C17.7321 7.25735 18.368 7.30024 18.9853 7.18537C19.3545 7.11395 19.7342 7.11824 20.1018 7.19798C20.4693 7.27773 20.8173 7.43131 21.1251 7.64961C21.4527 7.8762 21.7293 8.17016 21.9368 8.51227C22.1444 8.85438 22.2781 9.23693 22.3294 9.6349C22.41 10.2655 22.6458 10.8655 23.0152 11.3801C23.3845 11.8946 23.8756 12.3073 24.4435 12.5803C24.9314 12.8127 25.3434 13.1812 25.6311 13.6424C25.9187 14.1036 26.0701 14.6384 26.0673 15.1836C26.0676 15.6619 25.9477 16.1324 25.7187 16.5509C25.422 17.0991 25.2652 17.7285 25.2652 18.371C25.2652 19.0136 25.422 19.643 25.7187 20.1912C25.9502 20.6196 26.0673 21.0829 26.0673 21.5679C26.0673 22.6827 25.4444 23.681 24.4435 24.1712C23.8767 24.4431 23.3863 24.8542 23.017 25.3669C22.6477 25.8797 22.4113 26.4778 22.3294 27.1067C22.2211 27.9286 21.7947 28.633 21.12 29.0963C20.5148 29.5317 19.7706 29.711 18.9853 29.5666C17.7054 29.3322 16.4447 29.7686 15.5693 30.6919C15.0253 31.2656 14.2904 31.5812 13.5005 31.5812C12.7105 31.5812 11.9756 31.2656 11.4316 30.6919C10.7149 29.936 9.71871 29.5025 8.69827 29.5025C8.4715 29.5025 8.248 29.5232 8.01611 29.5662C7.63559 29.6381 7.24456 29.6307 6.86696 29.5445C6.48936 29.4583 6.13313 29.2951 5.82008 29.0649C5.50702 28.8346 5.24374 28.5422 5.04633 28.2055C4.84893 27.8688 4.72156 27.4949 4.67202 27.1067C4.59015 26.4783 4.35407 25.8806 3.9853 25.3681C3.61653 24.8555 3.12678 24.4444 2.56067 24.1722C1.55749 23.6806 0.934124 22.6827 0.934124 21.5674C0.933055 21.0861 1.05299 20.6124 1.28267 20.1907C1.57942 19.6421 1.7362 19.0127 1.7362 18.3706C1.7362 17.7285 1.57942 17.0991 1.28267 16.5509L1.28174 16.5514Z" fill="black"/>
<path id="Vector_2" d="M11.0643 16.1128C10.6136 15.6589 10.0033 15.4042 9.36713 15.4043C8.73099 15.4045 8.12084 15.6596 7.67032 16.1137C7.22116 16.5693 6.96899 17.1864 6.96908 17.8297C6.96916 18.473 7.2215 19.09 7.67078 19.5455L10.8208 22.7301C11.2748 23.1882 11.8771 23.4401 12.5178 23.4401C13.1584 23.4401 13.7613 23.1877 14.2148 22.7291L19.3291 17.5583C19.7827 17.0997 20.0323 16.4907 20.0323 15.8419C20.0323 15.1932 19.7827 14.5842 19.3296 14.1265C18.8765 13.6679 18.2742 13.4155 17.6326 13.4155C16.991 13.4155 16.3886 13.6679 15.9351 14.1265L12.5178 17.5819L11.0643 16.1123V16.1128ZM16.5949 14.7941C17.1492 14.2336 18.1155 14.2331 18.6694 14.7941C18.9465 15.0739 19.0991 15.4466 19.0991 15.8424C19.0991 16.2383 18.9465 16.611 18.6694 16.8912L13.555 22.062C13.0002 22.6225 12.0348 22.622 11.4805 22.0625L8.33102 18.8779C8.05629 18.5996 7.902 18.2224 7.902 17.8291C7.902 17.4359 8.05629 17.0587 8.33102 16.7803C8.61704 16.4911 8.99265 16.3468 9.36872 16.3468C9.7448 16.3468 10.1199 16.4911 10.406 16.7799L12.1888 18.5826C12.2321 18.6264 12.2835 18.6612 12.3401 18.685C12.3968 18.7087 12.4574 18.7209 12.5187 18.7209C12.58 18.7209 12.6407 18.7087 12.6973 18.685C12.7539 18.6612 12.8053 18.6264 12.8486 18.5826L16.5958 14.7936L16.5949 14.7941ZM19.6842 24.9017C18.0272 26.5268 15.8083 27.4334 13.5 27.4286C13.3762 27.4286 13.2575 27.4784 13.17 27.5668C13.0825 27.6553 13.0334 27.7753 13.0334 27.9004C13.0334 28.0256 13.0825 28.1456 13.17 28.234C13.2575 28.3225 13.3762 28.3722 13.5 28.3722C16.0503 28.3774 18.5019 27.3758 20.3328 25.5806C20.3771 25.5376 20.4126 25.4862 20.4372 25.4293C20.4618 25.3724 20.4751 25.3112 20.4763 25.2491C20.4774 25.187 20.4664 25.1253 20.444 25.0675C20.4215 25.0097 20.3879 24.957 20.3452 24.9123C20.3025 24.8677 20.2516 24.832 20.1952 24.8073C20.1388 24.7826 20.0782 24.7694 20.0168 24.7685C19.9554 24.7675 19.8944 24.7789 19.8373 24.8018C19.7802 24.8248 19.7282 24.8589 19.6842 24.9022V24.9017ZM21.0919 23.9992C21.1432 24.0331 21.2006 24.0565 21.2608 24.068C21.321 24.0795 21.3829 24.0789 21.4429 24.0662C21.5028 24.0535 21.5598 24.0289 21.6104 23.994C21.6609 23.959 21.7042 23.9143 21.7377 23.8624C21.8095 23.7515 21.8786 23.6392 21.9463 23.5255C22.0099 23.4182 22.0287 23.2897 21.9986 23.1683C21.9685 23.0469 21.8919 22.9425 21.7858 22.8782C21.6796 22.8139 21.5525 22.7949 21.4324 22.8253C21.3124 22.8558 21.2092 22.9332 21.1456 23.0405C21.0845 23.1438 21.0215 23.2458 20.9566 23.3462C20.8889 23.451 20.8652 23.5786 20.8905 23.7011C20.9159 23.8235 20.9884 23.9308 21.0919 23.9992ZM6.00177 13.2207C6.07429 13.2208 6.14582 13.2037 6.2107 13.171C6.27557 13.1382 6.33201 13.0906 6.37552 13.032C8.07532 10.7414 10.6719 9.42796 13.5 9.42796C13.6237 9.42796 13.7424 9.37825 13.8299 9.28977C13.9174 9.20129 13.9666 9.08129 13.9666 8.95617C13.9666 8.83104 13.9174 8.71104 13.8299 8.62256C13.7424 8.53408 13.6237 8.48438 13.5 8.48438C10.3756 8.48438 7.50654 9.9356 5.62896 12.4658C5.577 12.5359 5.54534 12.6192 5.53754 12.7064C5.52974 12.7936 5.5461 12.8813 5.5848 12.9597C5.6235 13.038 5.683 13.1039 5.75664 13.15C5.83028 13.1961 5.91516 13.2206 6.00177 13.2207Z" fill="black"/>
</g>
</g>
</svg>
